<svg width="185" height="22" viewBox="0 0 185 22" fill="none" xmlns="http://www.w3.org/2000/svg">
<mask id="path-1-outside-1_801_6" maskUnits="userSpaceOnUse" x="0" y="0" width="185" height="22" fill="black">
<rect fill="white" width="185" height="22"/>
<path d="M13.6154 8.58321H26.0564V20.6816H12.7143C11.0284 20.6816 9.4684 20.4308 8.03439 19.9291C6.60038 19.4274 5.36016 18.7424 4.31372 17.8741C3.28666 16.9865 2.47277 15.9445 1.87203 14.7482C1.29068 13.5326 1 12.2205 1 10.8119C1 9.40328 1.29068 8.12011 1.87203 6.96237C2.47277 5.78533 3.28666 4.78196 4.31372 3.95224C5.36016 3.10323 6.60038 2.45682 8.03439 2.01302C9.4684 1.54993 11.0284 1.31838 12.7143 1.31838H26.6377L22.7427 6.35456H12.7143C11.9004 6.35456 11.1446 6.47033 10.447 6.70188C9.74939 6.93343 9.13897 7.26146 8.61575 7.68596C8.11191 8.11047 7.71465 8.61216 7.42397 9.19103C7.13329 9.7506 6.98795 10.3777 6.98795 11.0724C6.98795 11.767 7.1236 12.4038 7.3949 12.9826C7.68558 13.5422 8.08284 14.0246 8.58668 14.4298C9.1099 14.835 9.72032 15.1534 10.4179 15.3849C11.1156 15.5972 11.881 15.7033 12.7143 15.7033H20.0684V12.8958H10.011L13.6154 8.58321Z"/>
<path d="M37.7405 20.6816L41.3739 15.7033H46.2573C46.8387 15.7033 47.4394 15.7033 48.0595 15.7033C48.699 15.7033 49.2513 15.7226 49.7164 15.7612C49.4451 15.4139 49.1253 14.9797 48.7572 14.4588C48.4083 13.9185 48.0692 13.4168 47.7398 12.9537L44.2517 7.83068L35.1244 20.6816H28.0028L40.4728 3.17077C40.8798 2.61119 41.3933 2.1095 42.0134 1.6657C42.6335 1.2219 43.4184 1 44.3679 1C45.2787 1 46.0345 1.21225 46.6352 1.63676C47.2553 2.04197 47.7785 2.5533 48.2049 3.17077L60.3552 20.6816H37.7405Z"/>
<path d="M75.9287 8.52533C76.355 9.27786 76.7232 9.94356 77.0332 10.5224C77.3627 11.082 77.6437 11.5837 77.8762 12.0275C78.1281 12.4713 78.3413 12.8765 78.5157 13.2431C78.7095 13.6097 78.8936 13.9667 79.068 14.314C79.223 13.9667 79.3877 13.6194 79.5621 13.2721C79.7559 12.9055 79.9691 12.5002 80.2016 12.0564C80.4535 11.5933 80.7345 11.082 81.0446 10.5224C81.374 9.96285 81.7519 9.3068 82.1782 8.55427L85.2885 3.05499C85.6373 2.43753 86.0733 1.94549 86.5965 1.57887C87.1391 1.19296 87.8077 1 88.6022 1C89.358 1 90.0362 1.2219 90.6369 1.6657C91.257 2.09021 91.7028 2.75591 91.974 3.66281L96.8865 20.6816H90.8985L89.0673 13.9378C88.7572 12.8379 88.4956 11.8731 88.2824 11.0434C88.0693 10.2137 87.8852 9.40328 87.7302 8.61216C87.4007 9.2875 87.0325 10.04 86.6256 10.8698C86.2186 11.6802 85.6857 12.7125 85.0269 13.9667L82.4108 18.8292C82.1588 19.3116 81.8972 19.6975 81.6259 19.987C81.374 20.2571 81.1124 20.4694 80.8411 20.6237C80.5698 20.7781 80.2791 20.8746 79.9691 20.9132C79.659 20.9711 79.3199 21 78.9517 21C78.5835 21 78.2444 20.9711 77.9343 20.9132C77.6243 20.8746 77.3336 20.7781 77.0623 20.6237C76.791 20.4694 76.5197 20.2571 76.2484 19.987C75.9965 19.6975 75.7446 19.3116 75.4927 18.8292L72.8765 13.9378C72.5277 13.2817 72.2177 12.6932 71.9464 12.1722C71.6751 11.6512 71.4232 11.1881 71.1906 10.7829C70.9775 10.3584 70.7837 9.9725 70.6093 9.62518C70.4542 9.27786 70.2992 8.94018 70.1442 8.61216C69.9892 9.38398 69.8051 10.1944 69.5919 11.0434C69.3787 11.8731 69.1268 12.8379 68.8361 13.9378L67.0049 20.6816H61.1041L66.1328 3.66281C66.4041 2.75591 66.8498 2.09021 67.4699 1.6657C68.0901 1.2219 68.778 1 69.5338 1C70.3089 1 70.9581 1.18331 71.4813 1.54993C72.0239 1.91655 72.4696 2.41823 72.8184 3.05499L75.9287 8.52533Z"/>
<path d="M121.675 15.7033L117.809 20.6816H99.0895V1.31838H121.617L117.722 6.35456H105.136V8.67004H120.541L117.082 13.0695H105.136V15.7033H121.675Z"/>
<path d="M129.601 1.31838L138.35 14.1693L147.477 1.31838H154.57L142.129 18.8292C141.703 19.3888 141.179 19.8905 140.559 20.3343C139.939 20.7781 139.164 21 138.234 21C137.323 21 136.558 20.7974 135.937 20.3922C135.337 19.9677 134.823 19.4467 134.397 18.8292L122.217 1.31838H129.601Z"/>
<path d="M182 20.6816H173.948L169.617 15.5586H160.374V20.6816H154.357V10.7829H171.274C172.204 10.7829 172.989 10.59 173.628 10.2041C174.268 9.81814 174.588 9.2875 174.588 8.61216C174.588 7.85962 174.297 7.30005 173.716 6.93343C173.134 6.54751 172.32 6.35456 171.274 6.35456H154.357L158.281 1.31838H170.78C171.884 1.31838 173.028 1.4245 174.21 1.63676C175.392 1.82971 176.467 2.18669 177.436 2.70767C178.405 3.22865 179.2 3.93295 179.82 4.82055C180.459 5.70815 180.779 6.8466 180.779 8.23589C180.779 8.98842 180.663 9.70236 180.43 10.3777C180.198 11.0531 179.859 11.6609 179.413 12.2012C178.987 12.7414 178.454 13.2045 177.814 13.5904C177.194 13.9571 176.487 14.2176 175.692 14.3719C176.022 14.6228 176.39 14.9411 176.797 15.3271C177.204 15.713 177.746 16.2436 178.425 16.919L182 20.6816Z"/>
</mask>
<path d="M13.6154 8.58321H26.0564V20.6816H12.7143C11.0284 20.6816 9.4684 20.4308 8.03439 19.9291C6.60038 19.4274 5.36016 18.7424 4.31372 17.8741C3.28666 16.9865 2.47277 15.9445 1.87203 14.7482C1.29068 13.5326 1 12.2205 1 10.8119C1 9.40328 1.29068 8.12011 1.87203 6.96237C2.47277 5.78533 3.28666 4.78196 4.31372 3.95224C5.36016 3.10323 6.60038 2.45682 8.03439 2.01302C9.4684 1.54993 11.0284 1.31838 12.7143 1.31838H26.6377L22.7427 6.35456H12.7143C11.9004 6.35456 11.1446 6.47033 10.447 6.70188C9.74939 6.93343 9.13897 7.26146 8.61575 7.68596C8.11191 8.11047 7.71465 8.61216 7.42397 9.19103C7.13329 9.7506 6.98795 10.3777 6.98795 11.0724C6.98795 11.767 7.1236 12.4038 7.3949 12.9826C7.68558 13.5422 8.08284 14.0246 8.58668 14.4298C9.1099 14.835 9.72032 15.1534 10.4179 15.3849C11.1156 15.5972 11.881 15.7033 12.7143 15.7033H20.0684V12.8958H10.011L13.6154 8.58321Z" fill="white"/>
<path d="M37.7405 20.6816L41.3739 15.7033H46.2573C46.8387 15.7033 47.4394 15.7033 48.0595 15.7033C48.699 15.7033 49.2513 15.7226 49.7164 15.7612C49.4451 15.4139 49.1253 14.9797 48.7572 14.4588C48.4083 13.9185 48.0692 13.4168 47.7398 12.9537L44.2517 7.83068L35.1244 20.6816H28.0028L40.4728 3.17077C40.8798 2.61119 41.3933 2.1095 42.0134 1.6657C42.6335 1.2219 43.4184 1 44.3679 1C45.2787 1 46.0345 1.21225 46.6352 1.63676C47.2553 2.04197 47.7785 2.5533 48.2049 3.17077L60.3552 20.6816H37.7405Z" fill="white"/>
<path d="M75.9287 8.52533C76.355 9.27786 76.7232 9.94356 77.0332 10.5224C77.3627 11.082 77.6437 11.5837 77.8762 12.0275C78.1281 12.4713 78.3413 12.8765 78.5157 13.2431C78.7095 13.6097 78.8936 13.9667 79.068 14.314C79.223 13.9667 79.3877 13.6194 79.5621 13.2721C79.7559 12.9055 79.9691 12.5002 80.2016 12.0564C80.4535 11.5933 80.7345 11.082 81.0446 10.5224C81.374 9.96285 81.7519 9.3068 82.1782 8.55427L85.2885 3.05499C85.6373 2.43753 86.0733 1.94549 86.5965 1.57887C87.1391 1.19296 87.8077 1 88.6022 1C89.358 1 90.0362 1.2219 90.6369 1.6657C91.257 2.09021 91.7028 2.75591 91.974 3.66281L96.8865 20.6816H90.8985L89.0673 13.9378C88.7572 12.8379 88.4956 11.8731 88.2824 11.0434C88.0693 10.2137 87.8852 9.40328 87.7302 8.61216C87.4007 9.2875 87.0325 10.04 86.6256 10.8698C86.2186 11.6802 85.6857 12.7125 85.0269 13.9667L82.4108 18.8292C82.1588 19.3116 81.8972 19.6975 81.6259 19.987C81.374 20.2571 81.1124 20.4694 80.8411 20.6237C80.5698 20.7781 80.2791 20.8746 79.9691 20.9132C79.659 20.9711 79.3199 21 78.9517 21C78.5835 21 78.2444 20.9711 77.9343 20.9132C77.6243 20.8746 77.3336 20.7781 77.0623 20.6237C76.791 20.4694 76.5197 20.2571 76.2484 19.987C75.9965 19.6975 75.7446 19.3116 75.4927 18.8292L72.8765 13.9378C72.5277 13.2817 72.2177 12.6932 71.9464 12.1722C71.6751 11.6512 71.4232 11.1881 71.1906 10.7829C70.9775 10.3584 70.7837 9.9725 70.6093 9.62518C70.4542 9.27786 70.2992 8.94018 70.1442 8.61216C69.9892 9.38398 69.8051 10.1944 69.5919 11.0434C69.3787 11.8731 69.1268 12.8379 68.8361 13.9378L67.0049 20.6816H61.1041L66.1328 3.66281C66.4041 2.75591 66.8498 2.09021 67.4699 1.6657C68.0901 1.2219 68.778 1 69.5338 1C70.3089 1 70.9581 1.18331 71.4813 1.54993C72.0239 1.91655 72.4696 2.41823 72.8184 3.05499L75.9287 8.52533Z" fill="white"/>
<path d="M121.675 15.7033L117.809 20.6816H99.0895V1.31838H121.617L117.722 6.35456H105.136V8.67004H120.541L117.082 13.0695H105.136V15.7033H121.675Z" fill="white"/>
<path d="M129.601 1.31838L138.35 14.1693L147.477 1.31838H154.57L142.129 18.8292C141.703 19.3888 141.179 19.8905 140.559 20.3343C139.939 20.7781 139.164 21 138.234 21C137.323 21 136.558 20.7974 135.937 20.3922C135.337 19.9677 134.823 19.4467 134.397 18.8292L122.217 1.31838H129.601Z" fill="white"/>
<path d="M182 20.6816H173.948L169.617 15.5586H160.374V20.6816H154.357V10.7829H171.274C172.204 10.7829 172.989 10.59 173.628 10.2041C174.268 9.81814 174.588 9.2875 174.588 8.61216C174.588 7.85962 174.297 7.30005 173.716 6.93343C173.134 6.54751 172.32 6.35456 171.274 6.35456H154.357L158.281 1.31838H170.78C171.884 1.31838 173.028 1.4245 174.21 1.63676C175.392 1.82971 176.467 2.18669 177.436 2.70767C178.405 3.22865 179.2 3.93295 179.82 4.82055C180.459 5.70815 180.779 6.8466 180.779 8.23589C180.779 8.98842 180.663 9.70236 180.43 10.3777C180.198 11.0531 179.859 11.6609 179.413 12.2012C178.987 12.7414 178.454 13.2045 177.814 13.5904C177.194 13.9571 176.487 14.2176 175.692 14.3719C176.022 14.6228 176.39 14.9411 176.797 15.3271C177.204 15.713 177.746 16.2436 178.425 16.919L182 20.6816Z" fill="white"/>
<path d="M13.6154 8.58321H26.0564V20.6816H12.7143C11.0284 20.6816 9.4684 20.4308 8.03439 19.9291C6.60038 19.4274 5.36016 18.7424 4.31372 17.8741C3.28666 16.9865 2.47277 15.9445 1.87203 14.7482C1.29068 13.5326 1 12.2205 1 10.8119C1 9.40328 1.29068 8.12011 1.87203 6.96237C2.47277 5.78533 3.28666 4.78196 4.31372 3.95224C5.36016 3.10323 6.60038 2.45682 8.03439 2.01302C9.4684 1.54993 11.0284 1.31838 12.7143 1.31838H26.6377L22.7427 6.35456H12.7143C11.9004 6.35456 11.1446 6.47033 10.447 6.70188C9.74939 6.93343 9.13897 7.26146 8.61575 7.68596C8.11191 8.11047 7.71465 8.61216 7.42397 9.19103C7.13329 9.7506 6.98795 10.3777 6.98795 11.0724C6.98795 11.767 7.1236 12.4038 7.3949 12.9826C7.68558 13.5422 8.08284 14.0246 8.58668 14.4298C9.1099 14.835 9.72032 15.1534 10.4179 15.3849C11.1156 15.5972 11.881 15.7033 12.7143 15.7033H20.0684V12.8958H10.011L13.6154 8.58321Z" stroke="black" stroke-width="2" mask="url(#path-1-outside-1_801_6)"/>
<path d="M37.7405 20.6816L41.3739 15.7033H46.2573C46.8387 15.7033 47.4394 15.7033 48.0595 15.7033C48.699 15.7033 49.2513 15.7226 49.7164 15.7612C49.4451 15.4139 49.1253 14.9797 48.7572 14.4588C48.4083 13.9185 48.0692 13.4168 47.7398 12.9537L44.2517 7.83068L35.1244 20.6816H28.0028L40.4728 3.17077C40.8798 2.61119 41.3933 2.1095 42.0134 1.6657C42.6335 1.2219 43.4184 1 44.3679 1C45.2787 1 46.0345 1.21225 46.6352 1.63676C47.2553 2.04197 47.7785 2.5533 48.2049 3.17077L60.3552 20.6816H37.7405Z" stroke="black" stroke-width="2" mask="url(#path-1-outside-1_801_6)"/>
<path d="M75.9287 8.52533C76.355 9.27786 76.7232 9.94356 77.0332 10.5224C77.3627 11.082 77.6437 11.5837 77.8762 12.0275C78.1281 12.4713 78.3413 12.8765 78.5157 13.2431C78.7095 13.6097 78.8936 13.9667 79.068 14.314C79.223 13.9667 79.3877 13.6194 79.5621 13.2721C79.7559 12.9055 79.9691 12.5002 80.2016 12.0564C80.4535 11.5933 80.7345 11.082 81.0446 10.5224C81.374 9.96285 81.7519 9.3068 82.1782 8.55427L85.2885 3.05499C85.6373 2.43753 86.0733 1.94549 86.5965 1.57887C87.1391 1.19296 87.8077 1 88.6022 1C89.358 1 90.0362 1.2219 90.6369 1.6657C91.257 2.09021 91.7028 2.75591 91.974 3.66281L96.8865 20.6816H90.8985L89.0673 13.9378C88.7572 12.8379 88.4956 11.8731 88.2824 11.0434C88.0693 10.2137 87.8852 9.40328 87.7302 8.61216C87.4007 9.2875 87.0325 10.04 86.6256 10.8698C86.2186 11.6802 85.6857 12.7125 85.0269 13.9667L82.4108 18.8292C82.1588 19.3116 81.8972 19.6975 81.6259 19.987C81.374 20.2571 81.1124 20.4694 80.8411 20.6237C80.5698 20.7781 80.2791 20.8746 79.9691 20.9132C79.659 20.9711 79.3199 21 78.9517 21C78.5835 21 78.2444 20.9711 77.9343 20.9132C77.6243 20.8746 77.3336 20.7781 77.0623 20.6237C76.791 20.4694 76.5197 20.2571 76.2484 19.987C75.9965 19.6975 75.7446 19.3116 75.4927 18.8292L72.8765 13.9378C72.5277 13.2817 72.2177 12.6932 71.9464 12.1722C71.6751 11.6512 71.4232 11.1881 71.1906 10.7829C70.9775 10.3584 70.7837 9.9725 70.6093 9.62518C70.4542 9.27786 70.2992 8.94018 70.1442 8.61216C69.9892 9.38398 69.8051 10.1944 69.5919 11.0434C69.3787 11.8731 69.1268 12.8379 68.8361 13.9378L67.0049 20.6816H61.1041L66.1328 3.66281C66.4041 2.75591 66.8498 2.09021 67.4699 1.6657C68.0901 1.2219 68.778 1 69.5338 1C70.3089 1 70.9581 1.18331 71.4813 1.54993C72.0239 1.91655 72.4696 2.41823 72.8184 3.05499L75.9287 8.52533Z" stroke="black" stroke-width="2" mask="url(#path-1-outside-1_801_6)"/>
<path d="M121.675 15.7033L117.809 20.6816H99.0895V1.31838H121.617L117.722 6.35456H105.136V8.67004H120.541L117.082 13.0695H105.136V15.7033H121.675Z" stroke="black" stroke-width="2" mask="url(#path-1-outside-1_801_6)"/>
<path d="M129.601 1.31838L138.35 14.1693L147.477 1.31838H154.57L142.129 18.8292C141.703 19.3888 141.179 19.8905 140.559 20.3343C139.939 20.7781 139.164 21 138.234 21C137.323 21 136.558 20.7974 135.937 20.3922C135.337 19.9677 134.823 19.4467 134.397 18.8292L122.217 1.31838H129.601Z" stroke="black" stroke-width="2" mask="url(#path-1-outside-1_801_6)"/>
<path d="M182 20.6816H173.948L169.617 15.5586H160.374V20.6816H154.357V10.7829H171.274C172.204 10.7829 172.989 10.59 173.628 10.2041C174.268 9.81814 174.588 9.2875 174.588 8.61216C174.588 7.85962 174.297 7.30005 173.716 6.93343C173.134 6.54751 172.32 6.35456 171.274 6.35456H154.357L158.281 1.31838H170.78C171.884 1.31838 173.028 1.4245 174.21 1.63676C175.392 1.82971 176.467 2.18669 177.436 2.70767C178.405 3.22865 179.2 3.93295 179.82 4.82055C180.459 5.70815 180.779 6.8466 180.779 8.23589C180.779 8.98842 180.663 9.70236 180.43 10.3777C180.198 11.0531 179.859 11.6609 179.413 12.2012C178.987 12.7414 178.454 13.2045 177.814 13.5904C177.194 13.9571 176.487 14.2176 175.692 14.3719C176.022 14.6228 176.39 14.9411 176.797 15.3271C177.204 15.713 177.746 16.2436 178.425 16.919L182 20.6816Z" stroke="black" stroke-width="2" mask="url(#path-1-outside-1_801_6)"/>
</svg>
