<svg width="24" height="29" viewBox="0 0 24 29" fill="none" xmlns="http://www.w3.org/2000/svg">
<path d="M6.95802 16.6629C6.73902 17.8629 5.87102 23.4569 5.61402 25.0379C5.59502 25.1509 5.55102 25.1939 5.42602 25.1939H0.764016C0.654624 25.1947 0.546368 25.1717 0.446665 25.1267C0.346963 25.0817 0.258169 25.0157 0.186368 24.9331C0.114567 24.8506 0.0614551 24.7535 0.0306713 24.6485C-0.000112537 24.5436 -0.00784087 24.4332 0.00801579 24.3249L3.67102 1.08094C3.72147 0.785819 3.87456 0.518009 4.10328 0.324792C4.33199 0.131575 4.62161 0.0253755 4.92102 0.0249416C14.44 0.0249416 15.24 -0.206058 17.671 0.737942C21.427 2.19394 21.771 5.70694 20.421 9.50694C19.077 13.4199 15.89 15.1009 11.665 15.1509C8.95302 15.1949 7.32102 14.7129 6.95902 16.6629H6.95802ZM22.315 7.66894C22.202 7.58794 22.159 7.55594 22.127 7.74994C21.9957 8.46255 21.8119 9.16447 21.577 9.84994C19.083 16.9629 12.171 16.3439 8.79602 16.3439C8.41502 16.3439 8.16502 16.5499 8.11502 16.9309C6.70302 25.7059 6.42102 27.5369 6.42102 27.5369C6.35802 27.9809 6.64002 28.3429 7.08302 28.3429H11.052C11.59 28.3429 12.033 27.9489 12.14 27.4119C12.184 27.0749 12.071 27.7929 13.04 21.7059C13.328 20.3309 13.934 20.4749 14.871 20.4749C19.309 20.4749 22.771 18.6749 23.802 13.4559C24.208 11.2809 24.09 8.99294 22.315 7.66794V7.66894Z" fill="white"/>
</svg>
