<svg width="53" height="16" viewBox="0 0 53 16" fill="none" xmlns="http://www.w3.org/2000/svg">
<path d="M38.797 0.655382C37.5886 0.213262 36.3112 -0.00859599 35.025 0.00025473C30.8656 0.00025473 27.9281 2.10397 27.9073 5.12383C27.8813 7.34239 29.9947 8.59261 31.5935 9.33387C33.2339 10.096 33.7824 10.5763 33.7772 11.2575C33.7668 12.2937 32.467 12.7635 31.2582 12.7635C29.597 12.7635 28.6897 12.5312 27.2937 11.9492L26.7764 11.7064L26.1863 15.183C27.1976 15.6059 29.0199 15.9687 30.902 16C35.3239 16 38.2147 13.9093 38.2485 10.6963C38.2849 8.92409 37.1411 7.58512 34.7338 6.47845C33.2703 5.76068 32.363 5.28043 32.363 4.55222C32.363 3.90753 33.1403 3.21847 34.765 3.21847C35.8464 3.19221 36.921 3.3959 37.9184 3.81618L38.3083 3.99105L38.8984 0.631891L38.797 0.655382ZM49.5906 0.282142H46.3411C45.3298 0.282142 44.5682 0.56142 44.1262 1.56891L37.8768 15.7834H42.2987L43.1826 13.4526L48.5794 13.4578C48.7067 14.0033 49.0967 15.7834 49.0967 15.7834H52.9961L49.5906 0.282142ZM21.9256 0.151638H26.1395L23.5035 15.6607H19.2947L21.9256 0.146418V0.151638ZM11.2282 8.69963L11.6649 10.8529L15.7827 0.282142H20.2462L13.6146 15.7625H9.16147L5.52202 2.6547C5.46307 2.43856 5.32464 2.25293 5.13467 2.13529C3.82291 1.45495 2.43302 0.938647 0.996094 0.597959L1.05329 0.2717H7.83567C8.75593 0.308241 9.49682 0.59796 9.74378 1.58457L11.2256 8.70746L11.2282 8.69963ZM44.3914 10.2813L46.0707 5.94339C46.0499 5.99037 46.4165 5.04813 46.6297 4.46609L46.9182 5.80506L47.8931 10.2787H44.3888L44.3914 10.2813Z" fill="white"/>
</svg>
