<svg width="37" height="22" viewBox="0 0 37 22" fill="none" xmlns="http://www.w3.org/2000/svg">
<path d="M11.9712 1.25496e-05C10.53 -0.000172378 9.10289 0.284214 7.77134 0.836933C6.43978 1.38965 5.22988 2.19987 4.21072 3.22134C3.19157 4.2428 2.38312 5.45549 1.83155 6.79016C1.27998 8.12484 0.996094 9.55535 0.996094 11C0.99648 13.0905 1.59116 15.1377 2.71046 16.9016C3.82977 18.6656 5.42736 20.0733 7.31608 20.9598C9.2048 21.8464 11.3065 22.1751 13.3748 21.9074C15.4432 21.6398 17.3927 20.7868 18.9949 19.4485C20.597 20.7876 22.5467 21.6412 24.6155 21.9092C26.6843 22.1773 28.7864 21.8488 30.6756 20.9621C32.5648 20.0755 34.1627 18.6674 35.2821 16.903C36.4015 15.1387 36.9961 13.091 36.9961 11C36.9961 8.90902 36.4015 6.86135 35.2821 5.09696C34.1627 3.33257 32.5648 1.92455 30.6756 1.0379C28.7864 0.151255 26.6843 -0.177285 24.6155 0.0907837C22.5467 0.358853 20.597 1.21242 18.9949 2.55147C17.0258 0.899526 14.5389 -0.00388358 11.9712 1.25496e-05ZM26.0185 2.81619C28.1834 2.81805 30.2591 3.68083 31.79 5.21515C33.3209 6.74947 34.182 8.82996 34.1842 11C34.1823 13.1703 33.3214 15.2511 31.7905 16.7858C30.2595 18.3204 28.1836 19.1834 26.0185 19.1852C24.0828 19.1852 22.3269 18.4671 20.9264 17.3364C22.2378 15.4848 22.9436 13.2708 22.9464 11C22.9436 8.7292 22.2378 6.51523 20.9264 4.6636C22.3269 3.5315 24.0828 2.81478 26.0185 2.81478V2.81619Z" fill="white"/>
</svg>
